# xmcd
#
# Track frame offsets:
# 150
# 17112
# 36577
# 56910
# 78805
# 105017
# 117555
# 133647
# 149870
# 166492
# 184985
#
# Disc length: 2664 seconds
#
#
# Revision: 2
# Processed by: cddbd v1.5.2PL0 Copyright (c) Steve Scherf et al.
# Submitted via: FreeRIP 2.96 
#
DISCID=9f0a660b
DTITLE=Muddy Waters - Going Way Back
DYEAR=1967
DGENRE=Blues
TTITLE0=Gypsy Woman
TTITLE1=Little Anna Mae
TTITLE2=My Home Is On The Delta
TTITLE3=Take A Little Walk
TTITLE4=Mean Disposition
TTITLE5=Laverne
TTITLE6=Leavin' In The Mornin'
TTITLE7=Got A Sweet Little Girl
TTITLE8=Bad Lovin' Trouble
TTITLE9=Nothin' Bother Me
TTITLE10=Crazy 'Bout You Baby
EXTD=
EXTT0=
EXTT1=
EXTT2=
EXTT3=
EXTT4=
EXTT5=
EXTT6=
EXTT7=
EXTT8=
EXTT9=
EXTT10=
PLAYORDER=
